Simulation
nRows=19
nColumns=15
endheader
time  TH_x TH_y TH_z SC_y  SC_z  SC_x  AC_y  AC_z  AC_x  GH_y  GH_z  GH_yy  EL_x  PS_y
0.0  0.000000  0.000000  0.000000  -29.619713616382132  1.7184498316697272  -5.570330168523848  56.24472588004334  10.264651270721684  -2.120159352698378  31.284171554980546  16.021719761953065  9.120754780829532  27.117838092334402  0.000000
0.038999999999999986  0.000000  0.000000  0.000000  -29.124962134079546  2.1332587359261104  -5.780122427262738  55.84266113284218  10.272995537709171  -1.8786590456502648  31.296034524829764  16.01682996749253  8.925060070971107  26.709333179248393  0.000000
0.07799999999999997  0.000000  0.000000  0.000000  -28.668462997290163  2.4520772530881962  -6.058591139602917  55.484116096255356  10.249403514516331  -1.6568860509574503  31.181089625270776  15.955561800829647  8.869483930057275  26.290027362847816  0.000000
0.11699999999999997  0.000000  0.000000  0.000000  -28.29902249310232  2.6617494460185736  -6.401518618856549  55.206867173050625  10.252650861584153  -1.4233778359879243  31.065327547652725  15.925964672021154  8.794993411421741  25.89191916781956  0.000000
0.15599999999999994  0.000000  0.000000  0.000000  -28.012897441327123  2.758780707539566  -6.763367557837946  55.071849867200754  10.315943518784456  -1.1834581627546317  31.12706510312998  16.019604027243272  8.459668311270388  25.5355244645954  0.000000
0.19499999999999992  0.000000  0.000000  0.000000  -27.845745928159282  2.768855357305981  -7.0985766236987455  55.076570665621006  10.448009864280936  -0.9348986780932232  31.558565183378096  16.32230408571989  7.625259215334897  25.241964054505825  0.000000
0.23399999999999993  0.000000  0.000000  0.000000  -27.778462831567694  2.726625538839827  -7.357771270800467  55.22060974578183  10.641826014639232  -0.697033168238343  32.52784466080396  16.894760378893547  6.072577204397077  25.0213866915876  0.000000
0.2729999999999999  0.000000  0.000000  0.000000  -27.815373950315575  2.668097755846251  -7.507486741620752  55.45798231593762  10.875694052434293  -0.4813650687931778  34.0667798612819  17.77650411612622  3.7443047687570123  24.87171535142334  0.000000
0.3119999999999999  0.000000  0.000000  0.000000  -27.908068473069367  2.6221354258186973  -7.520428816581289  55.769458838404844  11.12500400478039  -0.30641727024353793  36.09591992538097  18.978580913517902  0.6907037310418179  24.782941628721954  0.000000
0.35099999999999987  0.000000  0.000000  0.000000  -28.025351987558413  2.6076996662844416  -7.383277299610084  56.112764965663594  11.360241297207141  -0.17785137589009448  38.381020849544335  20.490257148843558  -2.8531136211225854  24.746028720820874  0.000000
0.38999999999999985  0.000000  0.000000  0.000000  -28.09518456032344  2.6320998364905543  -7.084624425178125  56.48462947537878  11.566265130209514  -0.10563709046050149  40.67710981374057  22.26705313956562  -6.639829661134904  24.756084932002064  0.000000
0.4289999999999998  0.000000  0.000000  0.000000  -28.084715614166544  2.6965187040952774  -6.62379070238038  56.85598569250146  11.731252709003835  -0.09120626442682199  42.75599219936064  24.25374714000016  -10.405043289308393  24.812857178038662  0.000000
0.46799999999999986  0.000000  0.000000  0.000000  -27.943946146154826  2.7977711575687594  -5.996514781098223  57.236396887653726  11.860018773779894  -0.13846944979258158  44.496300474951724  26.37246987542761  -13.994823981870788  24.91195662745513  0.000000
0.5069999999999998  0.000000  0.000000  0.000000  -27.67802978293764  2.9354379431835125  -5.202649248767873  57.60079772647256  11.94879294898999  -0.2476064914639808  45.86865250604016  28.56431774063689  -17.331495333414374  25.035239916000453  0.000000
0.5459999999999998  0.000000  0.000000  0.000000  -27.282026099597104  3.109006818422692  -4.233151751500597  57.95946698945083  12.002588580480689  -0.42211063261750054  46.92154774412952  30.762615918832953  -20.434127790235532  25.159429486197673  0.000000
0.5849999999999997  0.000000  0.000000  0.000000  -26.80229294809016  3.3236450430471103  -3.0883086102284074  58.279051676875696  12.008989060725254  -0.6619038180899535  47.74143258614739  32.93973886652341  -23.360471463731976  25.261703494273718  0.000000
0.6239999999999998  0.000000  0.000000  0.000000  -26.271465439893284  3.5830219617887202  -1.7639693038364435  58.56154310980199  11.968702348947476  -0.967794730630855  48.442878263909975  35.057145655324334  -26.223269313288192  25.327457395319882  0.000000
0.6629999999999998  0.000000  0.000000  0.000000  -25.74538458111058  3.8913032643904417  -0.2730481223952949  58.7741493661089  11.867611122591068  -1.332121877792942  49.09836192294416  37.11789671994808  -29.077994054580564  25.3506919398826  0.000000
0.7019999999999997  0.000000  0.000000  0.000000  -25.245770708802286  4.245732752444853  1.374182174582216  58.93062945964409  11.711955347420055  -1.7439763393012164  49.764510146187384  39.102866322269605  -31.967172797692953  25.325540663480616  0.000000
